<svg xmlns="http://www.w3.org/2000/svg" viewBox="0 0 1263.27 171.93"><defs><style>.cls-1{fill:#cfced6;}.cls-2{fill:#a28ec8;}.cls-3{fill:#62a5da;}.cls-4{fill:#a188d1;}.cls-5{fill:#a088d1;}.cls-6{fill:#9f89d1;}.cls-7{fill:#9e89d1;}.cls-8{fill:#9d8ad2;}.cls-9{fill:#9c8ad2;}.cls-10{fill:#9b8bd2;}.cls-11{fill:#9a8bd2;}.cls-12{fill:#998cd2;}.cls-13{fill:#988cd2;}.cls-14{fill:#978dd2;}.cls-15{fill:#968dd3;}.cls-16{fill:#958ed3;}.cls-17{fill:#948ed3;}.cls-18{fill:#938ed3;}.cls-19{fill:#928fd3;}.cls-20{fill:#918fd3;}.cls-21{fill:#9090d3;}.cls-22{fill:#8f90d4;}.cls-23{fill:#8e91d4;}.cls-24{fill:#8d91d4;}.cls-25{fill:#8c92d4;}.cls-26{fill:#8b92d4;}.cls-27{fill:#8a93d4;}.cls-28{fill:#8993d4;}.cls-29{fill:#8893d5;}.cls-30{fill:#8894d5;}.cls-31{fill:#8794d5;}.cls-32{fill:#8695d5;}.cls-33{fill:#8595d5;}.cls-34{fill:#8496d5;}.cls-35{fill:#8396d5;}.cls-36{fill:#8297d6;}.cls-37{fill:#8197d6;}.cls-38{fill:#8098d6;}.cls-39{fill:#7f98d6;}.cls-40{fill:#7e99d6;}.cls-41{fill:#7d99d6;}.cls-42{fill:#7c99d6;}.cls-43{fill:#7b9ad7;}.cls-44{fill:#7a9ad7;}.cls-45{fill:#799bd7;}.cls-46{fill:#789bd7;}.cls-47{fill:#779cd7;}.cls-48{fill:#769cd7;}.cls-49{fill:#759dd7;}.cls-50{fill:#749dd8;}.cls-51{fill:#739ed8;}.cls-52{fill:#729ed8;}.cls-53{fill:#719ed8;}.cls-54{fill:#709fd8;}.cls-55{fill:#6f9fd8;}.cls-56{fill:#6ea0d8;}.cls-57{fill:#6da0d9;}.cls-58{fill:#6ca1d9;}.cls-59{fill:#6ba1d9;}.cls-60{fill:#6aa2d9;}.cls-61{fill:#69a2d9;}.cls-62{fill:#68a3d9;}.cls-63{fill:#67a3d9;}.cls-64{fill:#66a4da;}.cls-65{fill:#65a4da;}.cls-66{fill:#64a4da;}.cls-67{fill:#63a5da;}</style></defs><title>ds4a-wide</title><g id="Layer_2" data-name="Layer 2"><g id="Isolation_Mode" data-name="Isolation Mode"><g id="Artwork_181" data-name="Artwork 181"><path class="cls-1" d="M.18,129.44V129L0,.92H.44L1170.68,0h.44V.44l.18,128.08h-.44L.62,129.44ZM.87,1.79l.18,126.78,1169.38-.92L1170.25.87Z"/><path class="cls-1" d="M47.06,36.71a15,15,0,0,1-1.49,7,14.13,14.13,0,0,1-4,4.87,17.22,17.22,0,0,1-5.68,2.84,23.94,23.94,0,0,1-6.44.94l-11.82.09-.25-30.89L28.8,21.5a29,29,0,0,1,6.63.71,16.83,16.83,0,0,1,5.84,2.48,13.1,13.1,0,0,1,4.16,4.7,15.65,15.65,0,0,1,1.63,7.32m-8,.06a9.65,9.65,0,0,0-.91-4.33,7.3,7.3,0,0,0-2.35-2.73,9.26,9.26,0,0,0-3.33-1.44,16.71,16.71,0,0,0-3.83-.4l-3.8,0L25,46l3.62,0a17.18,17.18,0,0,0,4-.49A9.78,9.78,0,0,0,36,43.91a7.52,7.52,0,0,0,2.3-2.81,9.7,9.7,0,0,0,.84-4.33"/><path class="cls-1" d="M72.66,52.05l-2.52-6-12.26.1L55.6,52.18l-8.33.06,13-31,7.43-.05L81.16,52ZM64,29.47,60,40.1,68,40Z"/><polygon class="cls-1" points="94.48 27.36 94.68 51.88 87.03 51.94 86.83 27.42 77.87 27.49 77.82 21.12 103.38 20.92 103.43 27.29 94.48 27.36"/><path class="cls-1" d="M125.93,51.64l-2.51-6-12.27.1-2.28,6.08-8.33.06,13-31,7.43-.06,13.41,30.79Zm-8.69-22.58L113.3,39.69l8-.06Z"/><path class="cls-1" d="M26.3,63.07a4,4,0,0,0-1.53-1.14,4.35,4.35,0,0,0-1.83-.41,5.82,5.82,0,0,0-.92.08,2.42,2.42,0,0,0-.83.31,2,2,0,0,0-.62.57,1.52,1.52,0,0,0-.25.9,1.38,1.38,0,0,0,.21.78,1.71,1.71,0,0,0,.59.53,4.66,4.66,0,0,0,.92.43l1.2.39c.64.2,1.3.43,2,.67a7.76,7.76,0,0,1,1.9,1,5.37,5.37,0,0,1,1.42,1.54A4.34,4.34,0,0,1,29.14,71a6,6,0,0,1-.58,2.74A5.61,5.61,0,0,1,27,75.65a7.21,7.21,0,0,1-2.31,1.13,10,10,0,0,1-2.68.38,11.33,11.33,0,0,1-3.92-.66,8.18,8.18,0,0,1-3.16-1.93l3-3A5.55,5.55,0,0,0,19.69,73a5.23,5.23,0,0,0,2.26.54,4.61,4.61,0,0,0,1-.12,2.3,2.3,0,0,0,.83-.34,1.73,1.73,0,0,0,.57-.63,1.94,1.94,0,0,0,.21-.93,1.49,1.49,0,0,0-.28-.88A2.64,2.64,0,0,0,23.5,70a6.56,6.56,0,0,0-1.23-.53c-.49-.16-1-.34-1.67-.52a18.83,18.83,0,0,1-1.77-.66,5.78,5.78,0,0,1-1.55-1,4.53,4.53,0,0,1-1.11-1.47,4.92,4.92,0,0,1-.42-2.11,5.06,5.06,0,0,1,.61-2.62A5.43,5.43,0,0,1,18,59.25a7.39,7.39,0,0,1,2.33-1A11.09,11.09,0,0,1,23,57.86a9.75,9.75,0,0,1,3.26.55,8.3,8.3,0,0,1,2.93,1.66Z"/><path class="cls-1" d="M45.68,76.19a10.36,10.36,0,0,1-4.23.85,11.22,11.22,0,0,1-4-.67,9.52,9.52,0,0,1-3.23-2A9.16,9.16,0,0,1,32,71.35a9.72,9.72,0,0,1-.8-3.93,9.61,9.61,0,0,1,.75-4,8.93,8.93,0,0,1,2.14-3.07,9.86,9.86,0,0,1,3.23-2,11.71,11.71,0,0,1,4-.71,11.59,11.59,0,0,1,3.93.66,7.54,7.54,0,0,1,3.14,2l-3.06,3a3.82,3.82,0,0,0-1.69-1.26,5.83,5.83,0,0,0-2.13-.4,5.56,5.56,0,0,0-2.19.45,5,5,0,0,0-1.71,1.19,5.23,5.23,0,0,0-1.1,1.78,6.11,6.11,0,0,0-.38,2.25,6.21,6.21,0,0,0,.41,2.28,5.35,5.35,0,0,0,1.12,1.77,5,5,0,0,0,1.7,1.14,5.65,5.65,0,0,0,2.16.4,5.17,5.17,0,0,0,2.36-.54,4.71,4.71,0,0,0,1.62-1.36L48.75,74a9.07,9.07,0,0,1-3.07,2.24"/><rect class="cls-1" x="50.63" y="58.1" width="4.58" height="18.36" transform="translate(-0.54 0.43) rotate(-0.46)"/><polygon class="cls-1" points="59.17 76.41 59.02 58.05 71.69 57.95 71.72 61.69 63.44 61.75 63.47 65.22 71.29 65.17 71.32 68.72 63.5 68.78 63.53 72.59 72.28 72.52 72.32 76.31 59.17 76.41"/><polygon class="cls-1" points="87.3 76.19 79.61 64.25 79.54 64.25 79.74 76.25 75.32 76.28 75.17 57.92 80.36 57.89 88.02 69.81 88.09 69.81 87.89 57.83 92.31 57.79 92.46 76.15 87.3 76.19"/><path class="cls-1" d="M109.83,75.7a10.35,10.35,0,0,1-4.22.84,11.27,11.27,0,0,1-4-.66,9.64,9.64,0,0,1-3.22-2,9.33,9.33,0,0,1-2.16-3.06,10.53,10.53,0,0,1,0-7.93,9,9,0,0,1,2.15-3.07,9.5,9.5,0,0,1,3.23-2,11.85,11.85,0,0,1,7.94,0,7.56,7.56,0,0,1,3.15,2l-3.07,3a3.84,3.84,0,0,0-1.68-1.25,5.68,5.68,0,0,0-2.14-.4,5.42,5.42,0,0,0-2.19.44,5.18,5.18,0,0,0-1.71,1.2,5.39,5.39,0,0,0-1.1,1.78,6.08,6.08,0,0,0-.38,2.25,6.42,6.42,0,0,0,.42,2.28,5.25,5.25,0,0,0,1.12,1.76,4.89,4.89,0,0,0,1.7,1.14,5.75,5.75,0,0,0,4.52-.13,4.69,4.69,0,0,0,1.61-1.36l3.19,2.87a9.09,9.09,0,0,1-3.07,2.25"/><polygon class="cls-1" points="114.86 75.98 114.72 57.62 127.38 57.52 127.41 61.26 119.14 61.32 119.17 64.8 126.99 64.74 127.02 68.29 119.19 68.35 119.22 72.16 127.98 72.09 128.01 75.88 114.86 75.98"/><path class="cls-1" d="M37.82,107.36l0,6-7,.05,0-6-14.91.12-.05-6.15L28.58,82.56l9-.07.15,18.94,4.39,0,.05,5.94ZM30.7,90.05h-.13l-7.43,11.49,7.65-.06Z"/><path class="cls-1" d="M74.67,113.1l-2.51-6-12.27.1-2.27,6.08-8.33.06,13.05-31,7.43,0L83.18,113ZM66,90.52,62,101.15l8-.06Z"/><polygon class="cls-1" points="88.55 112.99 88.3 82.1 96 82.05 96.2 106.43 108.46 106.34 108.52 112.84 88.55 112.99"/><polygon class="cls-1" points="112.09 112.81 111.84 81.92 119.55 81.86 119.74 106.25 132.01 106.16 132.06 112.66 112.09 112.81"/><polygon class="cls-2" points="254.4 85.24 246.4 85.24 240.72 54.4 240.61 54.4 234.93 85.24 226.93 85.24 219.1 44.2 226.17 44.2 231.45 76.08 231.68 76.08 237.19 44.2 244.49 44.2 250.17 76.08 250.29 76.08 255.56 44.2 262.29 44.2 254.4 85.24"/><path class="cls-2" d="M321,64.66a36.12,36.12,0,0,1-1,8.85,21.83,21.83,0,0,1-2.93,6.81,13.87,13.87,0,0,1-4.67,4.4,13,13,0,0,1-12.37,0,14,14,0,0,1-4.64-4.4,21.83,21.83,0,0,1-2.93-6.81,36.12,36.12,0,0,1-1-8.85,36.27,36.27,0,0,1,1-8.81,21.6,21.6,0,0,1,2.9-6.78A13.71,13.71,0,0,1,300,44.69a13.33,13.33,0,0,1,12.4,0,13.71,13.71,0,0,1,4.67,4.38A21.86,21.86,0,0,1,320,55.85a35.72,35.72,0,0,1,1,8.81m-7.19,0a33.31,33.31,0,0,0-.49-5.88A18.6,18.6,0,0,0,311.88,54a8.92,8.92,0,0,0-2.38-3.16,5,5,0,0,0-3.27-1.16,5.1,5.1,0,0,0-3.33,1.16A8.92,8.92,0,0,0,300.52,54a17.86,17.86,0,0,0-1.42,4.75,37.87,37.87,0,0,0,0,11.77,18.21,18.21,0,0,0,1.42,4.78,9,9,0,0,0,2.38,3.19,5.36,5.36,0,0,0,6.66,0,9,9,0,0,0,2.38-3.19,18.21,18.21,0,0,0,1.42-4.78,35.45,35.45,0,0,0,.46-5.89"/><polygon class="cls-2" points="381.76 85.24 381.88 53.71 381.71 53.71 373.48 85.24 368.03 85.24 359.97 53.71 359.79 53.71 359.91 85.24 353.59 85.24 353.59 44.2 362.92 44.2 370.81 74.23 371.04 74.23 378.75 44.2 388.55 44.2 388.55 85.24 381.76 85.24"/><polygon class="cls-2" points="422.92 85.24 422.92 44.2 441.3 44.2 441.3 50.35 429.59 50.35 429.59 61.24 440.43 61.24 440.43 66.93 429.59 66.93 429.59 79.04 441.88 79.04 441.88 85.24 422.92 85.24"/><polygon class="cls-2" points="492.25 85.24 480.6 56.26 480.43 56.26 480.55 85.24 474.29 85.24 474.29 44.2 482.23 44.2 493.76 73.36 493.94 73.36 493.88 44.2 499.91 44.2 499.91 85.24 492.25 85.24"/><rect class="cls-2" x="534.46" y="44.2" width="4.75" height="15.01"/><path class="cls-2" d="M589.88,52.14a7.1,7.1,0,0,0-5.68-2.72,6,6,0,0,0-1.92.32,4.78,4.78,0,0,0-1.68,1,4.93,4.93,0,0,0-1.19,1.8,7.28,7.28,0,0,0-.43,2.61,5.18,5.18,0,0,0,1.56,4,18.71,18.71,0,0,0,4.12,2.69c1,.51,2,1.08,3.07,1.74A13.71,13.71,0,0,1,590.57,66a11,11,0,0,1,2.9,7.82,14.09,14.09,0,0,1-1,5.34A11.8,11.8,0,0,1,590,83.07a10.43,10.43,0,0,1-3.73,2.41,12.72,12.72,0,0,1-4.53.81A15,15,0,0,1,575.38,85a13.11,13.11,0,0,1-4.63-3.36l3.76-5.1A9.74,9.74,0,0,0,577.73,79a8.63,8.63,0,0,0,3.86.93,4.84,4.84,0,0,0,3.65-1.51,5.82,5.82,0,0,0,1.45-4.23A5.4,5.4,0,0,0,585,70a19.59,19.59,0,0,0-4.41-2.9,25.29,25.29,0,0,1-3.15-1.8A11.69,11.69,0,0,1,574.78,63a10.4,10.4,0,0,1-1.8-3.18,12.69,12.69,0,0,1-.67-4.38,13.4,13.4,0,0,1,1-5.48,11.24,11.24,0,0,1,2.66-3.8,11,11,0,0,1,3.74-2.23,12.89,12.89,0,0,1,4.24-.72,14.7,14.7,0,0,1,5.59,1,10.71,10.71,0,0,1,4.14,3Z"/><path class="cls-2" d="M679.38,52.14a7.08,7.08,0,0,0-5.68-2.72,5.89,5.89,0,0,0-1.91.32,4.69,4.69,0,0,0-1.68,1,4.93,4.93,0,0,0-1.19,1.8,7.07,7.07,0,0,0-.43,2.61,5.18,5.18,0,0,0,1.56,4,18.25,18.25,0,0,0,4.12,2.69c1,.51,2,1.08,3.07,1.74A14,14,0,0,1,680.08,66a11.76,11.76,0,0,1,2.09,3.3,11.58,11.58,0,0,1,.81,4.52,13.9,13.9,0,0,1-1,5.34,11.94,11.94,0,0,1-2.55,3.91,10.47,10.47,0,0,1-3.74,2.41,12.7,12.7,0,0,1-4.52.81A14.92,14.92,0,0,1,664.89,85a13.15,13.15,0,0,1-4.64-3.36l3.77-5.1A9.64,9.64,0,0,0,667.24,79a8.59,8.59,0,0,0,3.85.93,4.86,4.86,0,0,0,3.66-1.51,5.87,5.87,0,0,0,1.45-4.23A5.4,5.4,0,0,0,674.46,70a19.59,19.59,0,0,0-4.41-2.9,26.17,26.17,0,0,1-3.16-1.8A11.91,11.91,0,0,1,664.28,63a10.59,10.59,0,0,1-1.79-3.18,12.69,12.69,0,0,1-.67-4.38,13.57,13.57,0,0,1,1-5.48,11.4,11.4,0,0,1,2.67-3.8,10.88,10.88,0,0,1,3.74-2.23,12.88,12.88,0,0,1,4.23-.72,14.75,14.75,0,0,1,5.6,1,10.71,10.71,0,0,1,4.14,3Z"/><path class="cls-2" d="M739.85,76.78a13.92,13.92,0,0,1-2.26,5,11,11,0,0,1-4,3.33,13.51,13.51,0,0,1-6,1.22,13.26,13.26,0,0,1-6-1.22,10.78,10.78,0,0,1-4-3.33,13.84,13.84,0,0,1-2.2-5,26.82,26.82,0,0,1-.66-6.09V44.2h7V70.06a25.81,25.81,0,0,0,.26,3.68,10.54,10.54,0,0,0,.93,3.1A5.3,5.3,0,0,0,724.72,79a5.92,5.92,0,0,0,5.91,0,5.46,5.46,0,0,0,1.83-2.11,10.25,10.25,0,0,0,.92-3.1,24.43,24.43,0,0,0,.26-3.68V44.2h6.9V70.69a25.7,25.7,0,0,1-.69,6.09"/><polygon class="cls-2" points="802.51 85.24 802.63 53.71 802.45 53.71 794.22 85.24 788.77 85.24 780.72 53.71 780.54 53.71 780.66 85.24 774.34 85.24 774.34 44.2 783.67 44.2 791.56 74.23 791.79 74.23 799.5 44.2 809.29 44.2 809.29 85.24 802.51 85.24"/><polygon class="cls-2" points="871.85 85.24 871.96 53.71 871.79 53.71 863.55 85.24 858.11 85.24 850.05 53.71 849.87 53.71 849.99 85.24 843.67 85.24 843.67 44.2 853 44.2 860.89 74.23 861.12 74.23 868.83 44.2 878.63 44.2 878.63 85.24 871.85 85.24"/><rect class="cls-2" x="913" y="44.2" width="6.96" height="41.04"/><polygon class="cls-2" points="964.65 50.11 964.65 85.25 957.81 85.25 957.81 50.11 950.1 50.11 950.1 44.2 972.36 44.2 972.36 50.11 964.65 50.11"/></g><ellipse class="cls-3" cx="1083.02" cy="45.58" rx="25.77" ry="24.72"/><ellipse class="cls-4" cx="1091.53" cy="147.22" rx="25.77" ry="24.72"/><ellipse class="cls-5" cx="1092.59" cy="145.63" rx="25.77" ry="24.72"/><ellipse class="cls-6" cx="1093.64" cy="144.04" rx="25.77" ry="24.72"/><ellipse class="cls-7" cx="1094.7" cy="142.45" rx="25.77" ry="24.72"/><ellipse class="cls-8" cx="1095.76" cy="140.87" rx="25.77" ry="24.72"/><ellipse class="cls-9" cx="1096.82" cy="139.28" rx="25.77" ry="24.72"/><ellipse class="cls-10" cx="1097.88" cy="137.69" rx="25.77" ry="24.72"/><ellipse class="cls-11" cx="1098.94" cy="136.1" rx="25.77" ry="24.72"/><ellipse class="cls-12" cx="1100" cy="134.51" rx="25.77" ry="24.72"/><ellipse class="cls-13" cx="1101.06" cy="132.92" rx="25.77" ry="24.72"/><ellipse class="cls-14" cx="1102.12" cy="131.34" rx="25.77" ry="24.72"/><ellipse class="cls-15" cx="1103.18" cy="129.75" rx="25.77" ry="24.72"/><ellipse class="cls-16" cx="1104.23" cy="128.16" rx="25.77" ry="24.72"/><ellipse class="cls-17" cx="1105.29" cy="126.57" rx="25.77" ry="24.72"/><ellipse class="cls-18" cx="1106.35" cy="124.98" rx="25.77" ry="24.72"/><ellipse class="cls-19" cx="1107.41" cy="123.4" rx="25.77" ry="24.72"/><ellipse class="cls-20" cx="1108.47" cy="121.81" rx="25.77" ry="24.72"/><ellipse class="cls-21" cx="1109.53" cy="120.22" rx="25.77" ry="24.72"/><ellipse class="cls-22" cx="1110.59" cy="118.63" rx="25.77" ry="24.72"/><ellipse class="cls-23" cx="1111.65" cy="117.04" rx="25.77" ry="24.72"/><ellipse class="cls-24" cx="1112.71" cy="115.46" rx="25.77" ry="24.72"/><ellipse class="cls-25" cx="1113.76" cy="113.87" rx="25.77" ry="24.72"/><ellipse class="cls-26" cx="1114.82" cy="112.28" rx="25.77" ry="24.72"/><ellipse class="cls-27" cx="1115.88" cy="110.69" rx="25.77" ry="24.72"/><ellipse class="cls-28" cx="1116.94" cy="109.1" rx="25.77" ry="24.72"/><ellipse class="cls-29" cx="1118" cy="107.51" rx="25.77" ry="24.72"/><ellipse class="cls-30" cx="1119.06" cy="105.93" rx="25.77" ry="24.72"/><ellipse class="cls-31" cx="1120.12" cy="104.34" rx="25.77" ry="24.72"/><ellipse class="cls-32" cx="1121.18" cy="102.75" rx="25.77" ry="24.72"/><ellipse class="cls-33" cx="1122.24" cy="101.16" rx="25.77" ry="24.72"/><ellipse class="cls-34" cx="1123.3" cy="99.57" rx="25.77" ry="24.72"/><ellipse class="cls-35" cx="1124.35" cy="97.99" rx="25.77" ry="24.72"/><ellipse class="cls-36" cx="1125.41" cy="96.4" rx="25.77" ry="24.72"/><ellipse class="cls-37" cx="1126.47" cy="94.81" rx="25.77" ry="24.72"/><ellipse class="cls-38" cx="1127.53" cy="93.22" rx="25.77" ry="24.72"/><ellipse class="cls-39" cx="1128.59" cy="91.63" rx="25.77" ry="24.72"/><ellipse class="cls-40" cx="1129.65" cy="90.05" rx="25.77" ry="24.72"/><ellipse class="cls-41" cx="1130.71" cy="88.46" rx="25.77" ry="24.72"/><ellipse class="cls-42" cx="1131.77" cy="86.87" rx="25.77" ry="24.72"/><ellipse class="cls-43" cx="1132.83" cy="85.28" rx="25.77" ry="24.72"/><ellipse class="cls-44" cx="1133.88" cy="83.69" rx="25.77" ry="24.72"/><ellipse class="cls-45" cx="1134.94" cy="82.1" rx="25.77" ry="24.72"/><ellipse class="cls-46" cx="1136" cy="80.52" rx="25.77" ry="24.72"/><ellipse class="cls-47" cx="1137.06" cy="78.93" rx="25.77" ry="24.72"/><ellipse class="cls-48" cx="1138.12" cy="77.34" rx="25.77" ry="24.72"/><ellipse class="cls-49" cx="1139.18" cy="75.75" rx="25.77" ry="24.72"/><ellipse class="cls-50" cx="1140.24" cy="74.16" rx="25.77" ry="24.72"/><ellipse class="cls-51" cx="1141.3" cy="72.58" rx="25.77" ry="24.72"/><ellipse class="cls-52" cx="1142.36" cy="70.99" rx="25.77" ry="24.72"/><ellipse class="cls-53" cx="1143.41" cy="69.4" rx="25.77" ry="24.72"/><ellipse class="cls-54" cx="1144.47" cy="67.81" rx="25.77" ry="24.72"/><ellipse class="cls-55" cx="1145.53" cy="66.22" rx="25.77" ry="24.72"/><ellipse class="cls-56" cx="1146.59" cy="64.64" rx="25.77" ry="24.72"/><ellipse class="cls-57" cx="1147.65" cy="63.05" rx="25.77" ry="24.72"/><ellipse class="cls-58" cx="1148.71" cy="61.46" rx="25.77" ry="24.72"/><ellipse class="cls-59" cx="1149.77" cy="59.87" rx="25.77" ry="24.72"/><ellipse class="cls-60" cx="1150.83" cy="58.28" rx="25.77" ry="24.72"/><ellipse class="cls-61" cx="1151.89" cy="56.69" rx="25.77" ry="24.72"/><ellipse class="cls-62" cx="1152.95" cy="55.11" rx="25.77" ry="24.72"/><ellipse class="cls-63" cx="1154" cy="53.52" rx="25.77" ry="24.72"/><ellipse class="cls-64" cx="1155.06" cy="51.93" rx="25.77" ry="24.72"/><ellipse class="cls-65" cx="1156.12" cy="50.34" rx="25.77" ry="24.72"/><ellipse class="cls-66" cx="1157.18" cy="48.75" rx="25.77" ry="24.72"/><ellipse class="cls-67" cx="1158.24" cy="47.17" rx="25.77" ry="24.72"/><ellipse class="cls-3" cx="1159.3" cy="45.58" rx="25.77" ry="24.72"/><ellipse class="cls-4" cx="1169.73" cy="147.22" rx="25.77" ry="24.72"/><ellipse class="cls-5" cx="1170.79" cy="145.63" rx="25.77" ry="24.72"/><ellipse class="cls-6" cx="1171.85" cy="144.04" rx="25.77" ry="24.72"/><ellipse class="cls-7" cx="1172.91" cy="142.45" rx="25.77" ry="24.72"/><ellipse class="cls-8" cx="1173.97" cy="140.87" rx="25.77" ry="24.72"/><ellipse class="cls-9" cx="1175.03" cy="139.28" rx="25.77" ry="24.72"/><ellipse class="cls-10" cx="1176.08" cy="137.69" rx="25.77" ry="24.72"/><ellipse class="cls-11" cx="1177.14" cy="136.1" rx="25.77" ry="24.72"/><ellipse class="cls-12" cx="1178.2" cy="134.51" rx="25.77" ry="24.72"/><ellipse class="cls-13" cx="1179.26" cy="132.92" rx="25.77" ry="24.72"/><ellipse class="cls-14" cx="1180.32" cy="131.34" rx="25.77" ry="24.72"/><ellipse class="cls-15" cx="1181.38" cy="129.75" rx="25.77" ry="24.72"/><ellipse class="cls-16" cx="1182.44" cy="128.16" rx="25.77" ry="24.72"/><ellipse class="cls-17" cx="1183.5" cy="126.57" rx="25.77" ry="24.72"/><ellipse class="cls-18" cx="1184.56" cy="124.98" rx="25.77" ry="24.72"/><ellipse class="cls-19" cx="1185.62" cy="123.4" rx="25.77" ry="24.72"/><ellipse class="cls-20" cx="1186.67" cy="121.81" rx="25.77" ry="24.72"/><ellipse class="cls-21" cx="1187.73" cy="120.22" rx="25.77" ry="24.72"/><ellipse class="cls-22" cx="1188.79" cy="118.63" rx="25.77" ry="24.72"/><ellipse class="cls-23" cx="1189.85" cy="117.04" rx="25.77" ry="24.72"/><ellipse class="cls-24" cx="1190.91" cy="115.46" rx="25.77" ry="24.72"/><ellipse class="cls-25" cx="1191.97" cy="113.87" rx="25.77" ry="24.72"/><ellipse class="cls-26" cx="1193.03" cy="112.28" rx="25.77" ry="24.72"/><ellipse class="cls-27" cx="1194.09" cy="110.69" rx="25.77" ry="24.72"/><ellipse class="cls-28" cx="1195.15" cy="109.1" rx="25.77" ry="24.72"/><ellipse class="cls-29" cx="1196.2" cy="107.51" rx="25.77" ry="24.72"/><ellipse class="cls-30" cx="1197.26" cy="105.93" rx="25.77" ry="24.72"/><ellipse class="cls-31" cx="1198.32" cy="104.34" rx="25.77" ry="24.72"/><ellipse class="cls-32" cx="1199.38" cy="102.75" rx="25.77" ry="24.72"/><ellipse class="cls-33" cx="1200.44" cy="101.16" rx="25.77" ry="24.72"/><ellipse class="cls-34" cx="1201.5" cy="99.57" rx="25.77" ry="24.72"/><ellipse class="cls-35" cx="1202.56" cy="97.99" rx="25.77" ry="24.72"/><ellipse class="cls-36" cx="1203.62" cy="96.4" rx="25.77" ry="24.72"/><ellipse class="cls-37" cx="1204.68" cy="94.81" rx="25.77" ry="24.72"/><ellipse class="cls-38" cx="1205.74" cy="93.22" rx="25.77" ry="24.72"/><ellipse class="cls-39" cx="1206.79" cy="91.63" rx="25.77" ry="24.72"/><ellipse class="cls-40" cx="1207.85" cy="90.05" rx="25.77" ry="24.72"/><ellipse class="cls-41" cx="1208.91" cy="88.46" rx="25.77" ry="24.72"/><ellipse class="cls-42" cx="1209.97" cy="86.87" rx="25.77" ry="24.72"/><ellipse class="cls-43" cx="1211.03" cy="85.28" rx="25.77" ry="24.72"/><ellipse class="cls-44" cx="1212.09" cy="83.69" rx="25.77" ry="24.72"/><ellipse class="cls-45" cx="1213.15" cy="82.1" rx="25.77" ry="24.72"/><ellipse class="cls-46" cx="1214.21" cy="80.52" rx="25.77" ry="24.72"/><ellipse class="cls-47" cx="1215.27" cy="78.93" rx="25.77" ry="24.72"/><ellipse class="cls-48" cx="1216.32" cy="77.34" rx="25.77" ry="24.72"/><ellipse class="cls-49" cx="1217.38" cy="75.75" rx="25.77" ry="24.72"/><ellipse class="cls-50" cx="1218.44" cy="74.16" rx="25.77" ry="24.72"/><ellipse class="cls-51" cx="1219.5" cy="72.58" rx="25.77" ry="24.72"/><ellipse class="cls-52" cx="1220.56" cy="70.99" rx="25.77" ry="24.72"/><ellipse class="cls-53" cx="1221.62" cy="69.4" rx="25.77" ry="24.72"/><ellipse class="cls-54" cx="1222.68" cy="67.81" rx="25.77" ry="24.72"/><ellipse class="cls-55" cx="1223.74" cy="66.22" rx="25.77" ry="24.72"/><ellipse class="cls-56" cx="1224.8" cy="64.64" rx="25.77" ry="24.72"/><ellipse class="cls-57" cx="1225.85" cy="63.05" rx="25.77" ry="24.72"/><ellipse class="cls-58" cx="1226.91" cy="61.46" rx="25.77" ry="24.72"/><ellipse class="cls-59" cx="1227.97" cy="59.87" rx="25.77" ry="24.72"/><ellipse class="cls-60" cx="1229.03" cy="58.28" rx="25.77" ry="24.72"/><ellipse class="cls-61" cx="1230.09" cy="56.69" rx="25.77" ry="24.72"/><ellipse class="cls-62" cx="1231.15" cy="55.11" rx="25.77" ry="24.72"/><ellipse class="cls-63" cx="1232.21" cy="53.52" rx="25.77" ry="24.72"/><ellipse class="cls-64" cx="1233.27" cy="51.93" rx="25.77" ry="24.72"/><ellipse class="cls-65" cx="1234.33" cy="50.34" rx="25.77" ry="24.72"/><ellipse class="cls-66" cx="1235.39" cy="48.75" rx="25.77" ry="24.72"/><ellipse class="cls-67" cx="1236.44" cy="47.17" rx="25.77" ry="24.72"/><ellipse class="cls-3" cx="1237.5" cy="45.58" rx="25.77" ry="24.72"/></g></g></svg>