<svg id="Layer_1" enable-background="new 0 0 511.672 511.672" height="512" viewBox="0 0 511.672 511.672" width="512" xmlns="http://www.w3.org/2000/svg"><g><g><path d="m411.214 399.022c39.713 0 75.181-25.303 87.626-63.015.075-.228.15-.456.225-.684 8.18-25.029 12.607-51.751 12.607-79.487 0-141.286-114.535-255.821-255.821-255.821-62.958 0-117.977 21.754-160.699 56.773-4.462 3.658-8.789 7.461-12.978 11.399v330.835z" fill="#b930d6"/></g><path d="m338.355 392.097c-141.286 0-255.821-114.535-255.821-255.821 0-27.737 4.443-54.452 12.623-79.481-96.244 78.891-130.076 225.096-51.631 341.553l6.034 2.524c52.179 64.946 133.956 94.542 218.677 91.471l35.482 14.842c17.051-3.228 33.503-8.148 49.175-14.58l92.751-65.258c23.756-26.276 42.133-57.55 53.403-92.03-42.721 35.019-97.735 56.78-160.693 56.78z" fill="#8d1ba5"/><g><path d="m441.372 235.947c-5.915 0-8.056 4.246-8.742 10.121l-3.179 3.13h-4.991l.412-3.535c.808-6.925-4.605-13.006-11.577-13.006-5.915 0-8.486 4.615-9.171 10.49l-3.133 6.051h-2.565v-69.428c0-6.437-5.219-11.655-11.656-11.655-6.437 0-7.021 5.855-7.021 12.292l-4.635 68.79h-2.311l-10.382-49.337c-1.325-6.299-7.507-10.331-13.806-9.006-6.299 1.326-6.418 6.64-5.092 12.94l12.014 76.558-18.908-18.908c-4.552-4.552-11.932-4.552-16.484 0s-1.122 8.909 3.43 13.461l35.146 38.948c1.956 20.052 18.189 36.371 38.672 37.186.622.025 1.247.037 1.875.037 25.616 0 46.381-20.766 46.381-46.381v-19.765c2.135-1.84 3.621-4.445 3.973-7.465l3.326-28.512c.809-6.926-4.604-13.006-11.576-13.006z" fill="#ffbe82"/><g><path d="m268.757 388.526h-191.28v-240.45c0-30.451 24.685-55.136 55.136-55.136h81.007c30.451 0 55.136 24.685 55.136 55.136v240.45z" fill="#783c28"/></g><g><path d="m246.308 344.718c-35.171.003-61.938-.001-82.34-.005-30.093-.006-54.491 24.388-54.491 54.481v66.462c41.473 28.989 91.935 46 146.374 46 16.361 0 32.357-1.554 47.864-4.49v-105.04c0-31.705-25.702-57.408-57.407-57.408z" fill="#05cdff"/></g><g><path d="m43.423 398.417c18.212 27.081 41.468 50.482 68.419 68.872v-65.163c0-.763.015-1.523.044-2.279.746-19.073 22.803-28.821 38.063-17.355 6.56 4.929 14.715 7.85 23.553 7.85 21.687 0 39.268-17.581 39.268-39.267 0-2.165-.183-4.286-.52-6.356-36.077-.001-60.663-.009-77.494-.012-39.366-.007-36.284.01-38.34.186-28.478 2.103-51.169 24.969-52.993 53.524z" fill="#0091c8"/></g><g><g><g><path d="m213.063 177.164h-79.884c-17.913 0-32.434-3.524-32.434-21.437v-52.27c0-17.913 14.521-32.434 32.434-32.434h79.884c17.913 0 32.434 14.521 32.434 32.434v52.27c0 17.913-14.521 21.437-32.434 21.437z" fill="#783c28"/></g></g></g><g><circle cx="253.878" cy="238.403" fill="#fff" r="7.107"/></g><g><g><g><path d="m110.573 135.172v-7.482c0-19.192 15.558-34.75 34.75-34.75h-14.996c-19.192 0-34.75 15.558-34.75 34.75v7.482z" fill="#a55a3c"/></g></g></g><g><g><g><path d="m173.503 376.137c-15.01 0-27.179-12.168-27.179-27.179v-60.876h54.358v60.876c0 15.01-12.169 27.179-27.179 27.179z" fill="#ff965a"/></g></g></g><g><g><g><path d="m249.918 171.019c-.179-18.081-14.888-32.645-32.971-32.645h-39.173c-22.657 0-43.17 9.169-58.038 23.995v108.712c0 29.054 23.335 52.905 52.388 53.132.205.002.41.002.615.002 43.037 0 77.925-34.888 77.925-77.925z" fill="#ffbe82"/></g></g></g><g><g><g><path d="m250.665 236.724v-45.864c9.992 0 18.092 8.1 18.092 18.092v9.681c0 9.991-8.1 18.091-18.092 18.091z" fill="#ff965a"/></g></g></g><g><g><g><path d="m95.577 236.724v-45.864c-9.992 0-18.092 8.1-18.092 18.092v9.681c.001 9.991 8.101 18.091 18.092 18.091z" fill="#ff965a"/></g></g></g><g><g><g><path d="m146.59 230.297c-3.549 0-6.427-2.878-6.427-6.427v-17.577c0-3.549 2.878-6.427 6.427-6.427s6.427 2.878 6.427 6.427v17.577c0 3.549-2.878 6.427-6.427 6.427z" fill="#ff965a"/></g></g></g><g><g><g><path d="m199.075 230.297c-3.549 0-6.427-2.878-6.427-6.427v-17.577c0-3.549 2.878-6.427 6.427-6.427s6.427 2.878 6.427 6.427v17.577c0 3.549-2.878 6.427-6.427 6.427z" fill="#ff965a"/></g></g></g><g><g><g><path d="m146.59 224.941c-3.549 0-6.427-2.878-6.427-6.427v-17.577c0-3.549 2.878-6.427 6.427-6.427s6.427 2.878 6.427 6.427v17.577c0 3.549-2.878 6.427-6.427 6.427z" fill="#373c41"/></g></g></g><g><g><g><path d="m199.075 224.941c-3.549 0-6.427-2.878-6.427-6.427v-17.577c0-3.549 2.878-6.427 6.427-6.427s6.427 2.878 6.427 6.427v17.577c0 3.549-2.878 6.427-6.427 6.427z" fill="#373c41"/></g></g></g><g><g><g><g><path d="m155.057 191.298h-18.742c-3.549 0-6.427-2.877-6.427-6.427 0-3.549 2.877-6.427 6.427-6.427h18.742c3.549 0 6.427 2.877 6.427 6.427 0 3.549-2.877 6.427-6.427 6.427z" fill="#783c28"/></g></g></g></g><g><g><g><g><path d="m208.613 191.298h-18.742c-3.549 0-6.427-2.877-6.427-6.427 0-3.549 2.877-6.427 6.427-6.427h18.742c3.549 0 6.427 2.877 6.427 6.427 0 3.549-2.878 6.427-6.427 6.427z" fill="#783c28"/></g></g></g></g><g><g><g><path d="m163.09 235.954c-1.598 5.63 1.306 11.762 6.858 13.611 1.117.372 2.313.573 3.555.573s2.438-.201 3.555-.573c5.552-1.848 8.456-7.981 6.858-13.611l-7.792-27.458c-.749-2.641-4.493-2.641-5.242 0z" fill="#ff965a"/></g></g></g><g><circle cx="93.638" cy="238.403" fill="#fff" r="7.107"/></g><g><path d="m179.923 138.512c-46.553-.089-84.346 37.629-84.346 84.183v24.36c0 47.429 42.565 84.119 90.256 76.045-36.408-6.194-64.135-37.872-64.135-76.045.02-34.17-.003-50.03-.006-57.758-.002-6.118 5-11.134 11.118-11.147h.008 37.401c21.765 0 39.409-17.644 39.409-39.409 0 0-5.687-.183-29.705-.229z" fill="#ff965a"/></g><g><path d="m95.577 133.385v39.409 49.9c5.708 0 10.335-4.627 10.335-10.335v-12.659c0-14.859 12.046-26.905 26.905-26.905h37.401c21.765 0 39.409-17.644 39.409-39.409h-114.05z" fill="#783c28"/></g><g><path d="m208.231 138.375c17.629 0 32.098 15.092 32.098 32.721v41.264c0 5.708 4.627 10.335 10.335 10.335v-87.376z" fill="#783c28"/></g><g><g><g><path d="m149.815 261.043c-2.003 0-3.603 1.748-3.336 3.733 1.823 13.545 13.428 23.988 27.472 23.988s25.649-10.444 27.473-23.988c.267-1.985-1.333-3.733-3.336-3.733z" fill="#e0248b"/></g></g></g><g><path d="m150.161 275.275c4.844 8.08 13.684 13.49 23.791 13.49 4.378 0 8.517-1.018 12.198-2.826-1.582-9.927-10.181-17.515-20.554-17.515-6.122 0-11.626 2.644-15.435 6.851z" fill="#f73c9a"/></g><g><path d="m187.428 268.424h-27.731c-2.16 0-3.911-1.751-3.911-3.91v-3.471h35.552v3.471c0 2.159-1.75 3.91-3.91 3.91z" fill="#fff"/></g><g><path d="m142.743 216.354c-1.425 0-2.58-1.155-2.58-2.58v-7.751c0-1.425 1.155-2.58 2.58-2.58 1.425 0 2.58 1.155 2.58 2.58v7.751c0 1.425-1.155 2.58-2.58 2.58z" fill="#fff"/></g><g><path d="m195.228 215.082c-1.425 0-2.58-1.155-2.58-2.58v-7.751c0-1.425 1.155-2.58 2.58-2.58 1.425 0 2.58 1.155 2.58 2.58v7.751c0 1.425-1.155 2.58-2.58 2.58z" fill="#fff"/></g><g><g><path d="m272.626 224.588c0 3.014-2.443 5.457-5.457 5.457h-189.161c-3.014 0-5.457-2.443-5.457-5.457v-41.588c0-3.014 2.443-5.457 5.457-5.457h189.161c3.014 0 5.457 2.443 5.457 5.457z" fill="#453d49"/></g><g><path d="m85.299 167.472h175.116v68.386h-175.116z" fill="#453d49"/></g><g><path d="m182.632 218.677h-18.688l-2.907 17.18h24.502z" fill="#fff"/></g><g><path d="m142.698 173.231h-30.678l-23.249 61.387h30.678z" fill="#fff"/></g><g><path d="m162.585 172.804h-11.304l-23.25 61.387h11.304z" fill="#fff"/></g><g><path d="m252.882 177.499v51.998h-160.05v-51.998zm5.458-11.625h-170.966c-3.406 0-6.167 2.761-6.167 6.167v62.914c0 3.406 2.761 6.167 6.167 6.167h170.966c3.406 0 6.167-2.761 6.167-6.167v-62.914c0-3.406-2.761-6.167-6.167-6.167z" fill="#b4d7dc"/></g></g><g><path d="m367.765 288.613-18.373-87.311c-.837-3.979.465-7.91 3.125-10.601-1.266-.164-2.58-.125-3.9.153-6.299 1.326-10.331 7.507-9.006 13.806l18.373 87.311z" fill="#ff965a"/></g><g><path d="m360.009 303.929-32.341-32.341c-3.556-3.556-4.334-8.839-2.333-13.15-1.9.514-3.697 1.514-5.188 3.005-4.552 4.552-4.552 11.932 0 16.484l39.863 39.863v-13.861z" fill="#ff965a"/></g><g><path d="m391.726 169.22c-1.831-.862-3.921-1.263-6.124-1.048-6.025.589-10.487 5.91-10.487 11.963v68.507c5.474 0 9.911-4.438 9.911-9.911v-58.96c.001-4.666 2.742-8.688 6.7-10.551z" fill="#ff965a"/></g><g><path d="m380.44 326.867h63.477v40.903h-63.477z" fill="#ffbe82" transform="matrix(0 -1 1 0 64.859 759.497)"/></g><g><path d="m371.563 307.653-12.179-58.869-6.496.413v55.496c0 12.435 4.894 23.726 12.86 32.054v42.309h28.89v-42.309c-9.96-.729-20.875-15.369-23.075-29.094z" fill="#ff965a"/></g><g><path d="m406.618 277.091 5.17-44.325c-5.232.679-9.443 4.829-10.07 10.196l-4.03 34.554c-.686 5.886 2.974 11.485 8.545 12.987.111.029.219.064.331.091.215.051.436.086.656.124.18.031.358.068.542.091.357.045.713.077 1.065.089.061.002.121-.001.182 0 .299.006.596 0 .891-.017.115-.007.229-.016.342-.026.251-.022.5-.053.747-.09.108-.017.216-.03.323-.05.332-.06.66-.132.982-.22.08-.022.157-.051.237-.074.248-.074.493-.154.734-.243.124-.046.247-.096.369-.146.2-.082.396-.17.59-.262.117-.056.236-.11.351-.17.03-.016.058-.034.088-.05-5.217-1.655-8.702-6.82-8.045-12.459z" fill="#ff965a"/></g><g><path d="m435.444 273.956 4.421-37.9c-5.232.679-9.444 4.829-10.07 10.196l-3.281 28.129c-.686 5.886 2.974 11.485 8.545 12.987.111.029.218.065.331.091.215.051.436.085.656.124.18.031.358.068.542.091.357.045.713.077 1.065.089.061.002.121-.001.182 0 .299.006.596 0 .891-.017.115-.007.228-.016.342-.026.251-.022.5-.052.747-.09.107-.017.216-.03.323-.05.332-.061.66-.133.982-.221.08-.022.157-.051.237-.074.248-.073.493-.154.734-.243.124-.046.247-.096.369-.146.199-.082.396-.17.59-.262.118-.056.236-.11.352-.17.03-.016.058-.034.088-.05-5.219-1.654-8.704-6.819-8.046-12.458z" fill="#ff965a"/></g><g><path d="m423.335 360.835h-43.585v118.836c24.776-13.74 47.038-31.459 65.901-52.319v-44.201c0-12.324-9.992-22.316-22.316-22.316z" fill="#05cdff"/></g><g><path d="m381.808 383.151c0-12.325 9.991-22.316 22.316-22.316h-28.92c-12.325 0-22.316 9.991-22.316 22.316v109.439c9.976-4.093 19.622-8.819 28.92-14.088z" fill="#0091c8"/></g><g><circle cx="385.893" cy="165.431" fill="#f73c9a" r="14.976"/></g><g><circle cx="348.114" cy="188.468" fill="#f73c9a" r="14.976"/></g><g><circle cx="319.746" cy="261.043" fill="#f73c9a" r="14.976"/></g><g><path d="m409.564 169.082c-2.366 0-4.284-1.918-4.284-4.284 0-10.689-8.697-19.386-19.386-19.386-10.69 0-19.387 8.697-19.387 19.386 0 2.366-1.918 4.284-4.284 4.284s-4.284-1.918-4.284-4.284c0-15.414 12.541-27.955 27.956-27.955 15.414 0 27.955 12.541 27.955 27.955-.002 2.366-1.92 4.284-4.286 4.284z" fill="#a0ebff"/></g><g><path d="m347.247 216.423c-15.415 0-27.956-12.541-27.956-27.955 0-15.415 12.541-27.956 27.956-27.956 2.366 0 4.284 1.918 4.284 4.284s-1.918 4.284-4.284 4.284c-10.69 0-19.387 8.697-19.387 19.387 0 10.689 8.697 19.386 19.387 19.386 10.689 0 19.386-8.697 19.386-19.386 0-2.366 1.918-4.284 4.284-4.284s4.284 1.918 4.284 4.284c0 15.416-12.54 27.956-27.954 27.956z" fill="#a0ebff"/></g><g><path d="m319.746 288.999c-2.366 0-4.284-1.918-4.284-4.284s1.918-4.284 4.284-4.284c10.689 0 19.386-8.697 19.386-19.387 0-10.689-8.697-19.386-19.386-19.386-10.69 0-19.387 8.697-19.387 19.386 0 2.366-1.918 4.284-4.284 4.284s-4.284-1.918-4.284-4.284c0-15.414 12.541-27.955 27.956-27.955 15.414 0 27.955 12.541 27.955 27.955-.001 15.414-12.542 27.955-27.956 27.955z" fill="#a0ebff"/></g></g></g></svg>